<svg width="366" height="365" viewBox="0 0 366 365" fill="none" xmlns="http://www.w3.org/2000/svg">
<path d="M125.443 274V239.091H148.148V244.392H131.767V253.869H146.972V259.17H131.767V268.699H148.284V274H125.443ZM154.327 274V247.818H160.224V252.267H160.531C161.077 250.767 161.98 249.597 163.241 248.756C164.503 247.903 166.009 247.477 167.759 247.477C169.531 247.477 171.026 247.909 172.241 248.773C173.469 249.625 174.332 250.79 174.832 252.267H175.105C175.685 250.812 176.662 249.653 178.037 248.79C179.423 247.915 181.065 247.477 182.963 247.477C185.372 247.477 187.338 248.239 188.861 249.761C190.384 251.284 191.145 253.506 191.145 256.426V274H184.957V257.381C184.957 255.756 184.526 254.568 183.662 253.818C182.798 253.057 181.741 252.676 180.491 252.676C179.003 252.676 177.838 253.142 176.997 254.074C176.168 254.994 175.753 256.193 175.753 257.67V274H169.702V257.125C169.702 255.773 169.293 254.693 168.474 253.886C167.668 253.08 166.611 252.676 165.304 252.676C164.418 252.676 163.611 252.903 162.884 253.358C162.156 253.801 161.577 254.432 161.145 255.25C160.713 256.057 160.497 257 160.497 258.08V274H154.327ZM197.678 274V239.091H203.848V252.148H204.104C204.422 251.511 204.871 250.835 205.45 250.119C206.03 249.392 206.814 248.773 207.803 248.261C208.791 247.739 210.053 247.477 211.587 247.477C213.609 247.477 215.433 247.994 217.058 249.028C218.695 250.051 219.99 251.568 220.945 253.58C221.911 255.58 222.393 258.034 222.393 260.943C222.393 263.818 221.922 266.261 220.979 268.273C220.036 270.284 218.751 271.818 217.126 272.875C215.501 273.932 213.661 274.46 211.604 274.46C210.104 274.46 208.859 274.21 207.871 273.71C206.882 273.21 206.087 272.608 205.484 271.903C204.893 271.187 204.433 270.511 204.104 269.875H203.746V274H197.678ZM203.729 260.909C203.729 262.602 203.967 264.085 204.445 265.358C204.933 266.631 205.632 267.625 206.541 268.341C207.462 269.045 208.575 269.398 209.882 269.398C211.246 269.398 212.388 269.034 213.308 268.307C214.229 267.568 214.922 266.562 215.388 265.29C215.865 264.006 216.104 262.545 216.104 260.909C216.104 259.284 215.871 257.841 215.405 256.58C214.939 255.318 214.246 254.33 213.325 253.614C212.405 252.898 211.257 252.54 209.882 252.54C208.564 252.54 207.445 252.886 206.524 253.58C205.604 254.273 204.905 255.244 204.428 256.494C203.962 257.744 203.729 259.216 203.729 260.909ZM227.639 274V247.818H233.622V252.182H233.895C234.372 250.67 235.19 249.506 236.349 248.688C237.52 247.858 238.855 247.443 240.355 247.443C240.696 247.443 241.077 247.46 241.497 247.494C241.929 247.517 242.287 247.557 242.571 247.614V253.29C242.31 253.199 241.895 253.119 241.327 253.051C240.77 252.972 240.23 252.932 239.707 252.932C238.582 252.932 237.571 253.176 236.673 253.665C235.787 254.142 235.088 254.807 234.577 255.659C234.065 256.511 233.81 257.494 233.81 258.608V274H227.639Z" fill="#FEFEFE"/>
<rect x="166.021" y="208.991" width="24" height="24" rx="4" transform="rotate(-45 166.021 208.991)" fill="#0F766E"/>
<g opacity="0.6" filter="url(#filter0_f_6_24)">
<rect x="166" y="208.971" width="24" height="24" rx="4" transform="rotate(-45 166 208.971)" fill="#1FA89F"/>
</g>
<g opacity="0.35" filter="url(#filter1_d_6_24)">
<rect x="166" y="208.971" width="24" height="24" rx="4" transform="rotate(-45 166 208.971)" fill="#38F9E4"/>
</g>
<g style="mix-blend-mode:screen" opacity="0.6" filter="url(#filter2_d_6_24)">
<rect x="166" y="208.971" width="24" height="24" rx="4" transform="rotate(-45 166 208.971)" fill="#38F9E4"/>
</g>
<rect x="139.021" y="182.991" width="24" height="24" rx="4" transform="rotate(-45 139.021 182.991)" fill="#0F766E"/>
<g opacity="0.6" filter="url(#filter3_f_6_24)">
<rect x="139" y="182.971" width="24" height="24" rx="4" transform="rotate(-45 139 182.971)" fill="#1FA89F"/>
</g>
<g opacity="0.35" filter="url(#filter4_d_6_24)">
<rect x="139" y="182.971" width="24" height="24" rx="4" transform="rotate(-45 139 182.971)" fill="#38F9E4"/>
</g>
<g style="mix-blend-mode:screen" opacity="0.6" filter="url(#filter5_d_6_24)">
<rect x="139" y="182.971" width="24" height="24" rx="4" transform="rotate(-45 139 182.971)" fill="#38F9E4"/>
</g>
<rect x="193.021" y="182.991" width="24" height="24" rx="4" transform="rotate(-45 193.021 182.991)" fill="#0F766E"/>
<g opacity="0.6" filter="url(#filter6_f_6_24)">
<rect x="193" y="182.971" width="24" height="24" rx="4" transform="rotate(-45 193 182.971)" fill="#1FA89F"/>
</g>
<g opacity="0.35" filter="url(#filter7_d_6_24)">
<rect x="193" y="182.971" width="24" height="24" rx="4" transform="rotate(-45 193 182.971)" fill="#38F9E4"/>
</g>
<g style="mix-blend-mode:screen" opacity="0.6" filter="url(#filter8_d_6_24)">
<rect x="193" y="182.971" width="24" height="24" rx="4" transform="rotate(-45 193 182.971)" fill="#38F9E4"/>
</g>
<rect x="166.021" y="155.991" width="24" height="24" rx="4" transform="rotate(-45 166.021 155.991)" fill="#0F766E"/>
<g opacity="0.6" filter="url(#filter9_f_6_24)">
<rect x="166" y="155.971" width="24" height="24" rx="4" transform="rotate(-45 166 155.971)" fill="#1FA89F"/>
</g>
<g opacity="0.35" filter="url(#filter10_d_6_24)">
<rect x="166" y="155.971" width="24" height="24" rx="4" transform="rotate(-45 166 155.971)" fill="#38F9E4"/>
</g>
<g style="mix-blend-mode:screen" opacity="0.6" filter="url(#filter11_d_6_24)">
<rect x="166" y="155.971" width="24" height="24" rx="4" transform="rotate(-45 166 155.971)" fill="#38F9E4"/>
</g>
<defs>
<filter id="filter0_f_6_24" x="142.657" y="168.657" width="80.6274" height="80.6274" filterUnits="userSpaceOnUse" color-interpolation-filters="sRGB">
<feFlood flood-opacity="0" result="BackgroundImageFix"/>
<feBlend mode="normal" in="SourceGraphic" in2="BackgroundImageFix" result="shape"/>
<feGaussianBlur stdDeviation="12.5" result="effect1_foregroundBlur_6_24"/>
</filter>
<filter id="filter1_d_6_24" x="97.6569" y="123.657" width="170.627" height="170.627" filterUnits="userSpaceOnUse" color-interpolation-filters="sRGB">
<feFlood flood-opacity="0" result="BackgroundImageFix"/>
<feColorMatrix in="SourceAlpha" type="matrix" values="0 0 0 0 0 0 0 0 0 0 0 0 0 0 0 0 0 0 127 0" result="hardAlpha"/>
<feOffset/>
<feGaussianBlur stdDeviation="35"/>
<feComposite in2="hardAlpha" operator="out"/>
<feColorMatrix type="matrix" values="0 0 0 0 0.219608 0 0 0 0 0.976471 0 0 0 0 0.894118 0 0 0 0.35 0"/>
<feBlend mode="normal" in2="BackgroundImageFix" result="effect1_dropShadow_6_24"/>
<feBlend mode="normal" in="SourceGraphic" in2="effect1_dropShadow_6_24" result="shape"/>
</filter>
<filter id="filter2_d_6_24" x="27.6569" y="53.6568" width="310.627" height="310.627" filterUnits="userSpaceOnUse" color-interpolation-filters="sRGB">
<feFlood flood-opacity="0" result="BackgroundImageFix"/>
<feColorMatrix in="SourceAlpha" type="matrix" values="0 0 0 0 0 0 0 0 0 0 0 0 0 0 0 0 0 0 127 0" result="hardAlpha"/>
<feOffset/>
<feGaussianBlur stdDeviation="70"/>
<feComposite in2="hardAlpha" operator="out"/>
<feColorMatrix type="matrix" values="0 0 0 0 0.219608 0 0 0 0 0.976471 0 0 0 0 0.894118 0 0 0 1 0"/>
<feBlend mode="normal" in2="BackgroundImageFix" result="effect1_dropShadow_6_24"/>
<feBlend mode="normal" in="SourceGraphic" in2="effect1_dropShadow_6_24" result="shape"/>
</filter>
<filter id="filter3_f_6_24" x="115.657" y="142.657" width="80.6274" height="80.6274" filterUnits="userSpaceOnUse" color-interpolation-filters="sRGB">
<feFlood flood-opacity="0" result="BackgroundImageFix"/>
<feBlend mode="normal" in="SourceGraphic" in2="BackgroundImageFix" result="shape"/>
<feGaussianBlur stdDeviation="12.5" result="effect1_foregroundBlur_6_24"/>
</filter>
<filter id="filter4_d_6_24" x="70.6569" y="97.6569" width="170.627" height="170.627" filterUnits="userSpaceOnUse" color-interpolation-filters="sRGB">
<feFlood flood-opacity="0" result="BackgroundImageFix"/>
<feColorMatrix in="SourceAlpha" type="matrix" values="0 0 0 0 0 0 0 0 0 0 0 0 0 0 0 0 0 0 127 0" result="hardAlpha"/>
<feOffset/>
<feGaussianBlur stdDeviation="35"/>
<feComposite in2="hardAlpha" operator="out"/>
<feColorMatrix type="matrix" values="0 0 0 0 0.219608 0 0 0 0 0.976471 0 0 0 0 0.894118 0 0 0 0.35 0"/>
<feBlend mode="normal" in2="BackgroundImageFix" result="effect1_dropShadow_6_24"/>
<feBlend mode="normal" in="SourceGraphic" in2="effect1_dropShadow_6_24" result="shape"/>
</filter>
<filter id="filter5_d_6_24" x="0.65686" y="27.6569" width="310.627" height="310.627" filterUnits="userSpaceOnUse" color-interpolation-filters="sRGB">
<feFlood flood-opacity="0" result="BackgroundImageFix"/>
<feColorMatrix in="SourceAlpha" type="matrix" values="0 0 0 0 0 0 0 0 0 0 0 0 0 0 0 0 0 0 127 0" result="hardAlpha"/>
<feOffset/>
<feGaussianBlur stdDeviation="70"/>
<feComposite in2="hardAlpha" operator="out"/>
<feColorMatrix type="matrix" values="0 0 0 0 0.219608 0 0 0 0 0.976471 0 0 0 0 0.894118 0 0 0 1 0"/>
<feBlend mode="normal" in2="BackgroundImageFix" result="effect1_dropShadow_6_24"/>
<feBlend mode="normal" in="SourceGraphic" in2="effect1_dropShadow_6_24" result="shape"/>
</filter>
<filter id="filter6_f_6_24" x="169.657" y="142.657" width="80.6274" height="80.6274" filterUnits="userSpaceOnUse" color-interpolation-filters="sRGB">
<feFlood flood-opacity="0" result="BackgroundImageFix"/>
<feBlend mode="normal" in="SourceGraphic" in2="BackgroundImageFix" result="shape"/>
<feGaussianBlur stdDeviation="12.5" result="effect1_foregroundBlur_6_24"/>
</filter>
<filter id="filter7_d_6_24" x="124.657" y="97.6569" width="170.627" height="170.627" filterUnits="userSpaceOnUse" color-interpolation-filters="sRGB">
<feFlood flood-opacity="0" result="BackgroundImageFix"/>
<feColorMatrix in="SourceAlpha" type="matrix" values="0 0 0 0 0 0 0 0 0 0 0 0 0 0 0 0 0 0 127 0" result="hardAlpha"/>
<feOffset/>
<feGaussianBlur stdDeviation="35"/>
<feComposite in2="hardAlpha" operator="out"/>
<feColorMatrix type="matrix" values="0 0 0 0 0.219608 0 0 0 0 0.976471 0 0 0 0 0.894118 0 0 0 0.35 0"/>
<feBlend mode="normal" in2="BackgroundImageFix" result="effect1_dropShadow_6_24"/>
<feBlend mode="normal" in="SourceGraphic" in2="effect1_dropShadow_6_24" result="shape"/>
</filter>
<filter id="filter8_d_6_24" x="54.6569" y="27.6569" width="310.627" height="310.627" filterUnits="userSpaceOnUse" color-interpolation-filters="sRGB">
<feFlood flood-opacity="0" result="BackgroundImageFix"/>
<feColorMatrix in="SourceAlpha" type="matrix" values="0 0 0 0 0 0 0 0 0 0 0 0 0 0 0 0 0 0 127 0" result="hardAlpha"/>
<feOffset/>
<feGaussianBlur stdDeviation="70"/>
<feComposite in2="hardAlpha" operator="out"/>
<feColorMatrix type="matrix" values="0 0 0 0 0.219608 0 0 0 0 0.976471 0 0 0 0 0.894118 0 0 0 1 0"/>
<feBlend mode="normal" in2="BackgroundImageFix" result="effect1_dropShadow_6_24"/>
<feBlend mode="normal" in="SourceGraphic" in2="effect1_dropShadow_6_24" result="shape"/>
</filter>
<filter id="filter9_f_6_24" x="142.657" y="115.657" width="80.6274" height="80.6274" filterUnits="userSpaceOnUse" color-interpolation-filters="sRGB">
<feFlood flood-opacity="0" result="BackgroundImageFix"/>
<feBlend mode="normal" in="SourceGraphic" in2="BackgroundImageFix" result="shape"/>
<feGaussianBlur stdDeviation="12.5" result="effect1_foregroundBlur_6_24"/>
</filter>
<filter id="filter10_d_6_24" x="97.6569" y="70.6569" width="170.627" height="170.627" filterUnits="userSpaceOnUse" color-interpolation-filters="sRGB">
<feFlood flood-opacity="0" result="BackgroundImageFix"/>
<feColorMatrix in="SourceAlpha" type="matrix" values="0 0 0 0 0 0 0 0 0 0 0 0 0 0 0 0 0 0 127 0" result="hardAlpha"/>
<feOffset/>
<feGaussianBlur stdDeviation="35"/>
<feComposite in2="hardAlpha" operator="out"/>
<feColorMatrix type="matrix" values="0 0 0 0 0.219608 0 0 0 0 0.976471 0 0 0 0 0.894118 0 0 0 0.35 0"/>
<feBlend mode="normal" in2="BackgroundImageFix" result="effect1_dropShadow_6_24"/>
<feBlend mode="normal" in="SourceGraphic" in2="effect1_dropShadow_6_24" result="shape"/>
</filter>
<filter id="filter11_d_6_24" x="27.6569" y="0.656853" width="310.627" height="310.627" filterUnits="userSpaceOnUse" color-interpolation-filters="sRGB">
<feFlood flood-opacity="0" result="BackgroundImageFix"/>
<feColorMatrix in="SourceAlpha" type="matrix" values="0 0 0 0 0 0 0 0 0 0 0 0 0 0 0 0 0 0 127 0" result="hardAlpha"/>
<feOffset/>
<feGaussianBlur stdDeviation="70"/>
<feComposite in2="hardAlpha" operator="out"/>
<feColorMatrix type="matrix" values="0 0 0 0 0.219608 0 0 0 0 0.976471 0 0 0 0 0.894118 0 0 0 1 0"/>
<feBlend mode="normal" in2="BackgroundImageFix" result="effect1_dropShadow_6_24"/>
<feBlend mode="normal" in="SourceGraphic" in2="effect1_dropShadow_6_24" result="shape"/>
</filter>
</defs>
</svg>
